<svg xmlns="http://www.w3.org/2000/svg" viewBox="0 0 498.11 167.24"><defs><style>.cls-1{fill:#f2f2f2;}.cls-2{font-size:33.34px;}.cls-2,.cls-21{fill:#333;}.cls-17,.cls-2,.cls-20,.cls-22{font-family:DINPro-Bold, DINPro;font-weight:700;}.cls-3{letter-spacing:-0.03em;}.cls-4{letter-spacing:-0.01em;}.cls-5{letter-spacing:-0.01em;}.cls-6{letter-spacing:-0.07em;}.cls-7{letter-spacing:-0.01em;}.cls-8{letter-spacing:-0.01em;}.cls-9{letter-spacing:-0.04em;}.cls-10{letter-spacing:-0.04em;}.cls-11{letter-spacing:-0.08em;}.cls-12{letter-spacing:-0.01em;}.cls-13{letter-spacing:-0.01em;}.cls-14{letter-spacing:0.01em;}.cls-15{letter-spacing:0.02em;}.cls-16{fill:#29aae1;}.cls-17,.cls-20,.cls-22{font-size:40.53px;fill:#fff;}.cls-17{letter-spacing:-0.01em;}.cls-18{font-family:Arial-BoldMT, Arial;}.cls-18,.cls-19,.cls-20{letter-spacing:-0.01em;}.cls-22{letter-spacing:-0.02em;}</style></defs><title>htp-2-ru</title><g id="Layer_2" data-name="Layer 2"><g id="Layer_1-2" data-name="Layer 1"><path class="cls-1" d="M41.13,59.75H354.2a19,19,0,0,0,19-19V19a19,19,0,0,0-19-19H41.13a19,19,0,0,0-19,19V40.76a19,19,0,0,0,19,19"/><text class="cls-2" transform="translate(40.95 38.36)"><tspan class="cls-3">TO</tspan><tspan class="cls-4" x="38.24" y="0">:</tspan><tspan class="cls-5" x="48.21" y="0"> </tspan><tspan class="cls-6" x="55.65" y="0">+</tspan><tspan class="cls-7" x="71.48" y="0">7</tspan><tspan class="cls-5" x="89.25" y="0"> </tspan><tspan class="cls-8" x="96.69" y="0">(</tspan><tspan class="cls-9" x="107.39" y="0">7</tspan><tspan class="cls-10" x="124.3" y="0">0</tspan><tspan class="cls-11" x="141.1" y="0">1</tspan><tspan class="cls-12" x="156.7" y="0">)</tspan><tspan class="cls-13" x="167.57" y="0"> </tspan><tspan class="cls-14" x="175.01" y="0">xx</tspan><tspan class="cls-7" x="211.15" y="0">x</tspan><tspan class="cls-5" x="228.39" y="0"> </tspan><tspan class="cls-15" x="235.82" y="0">x</tspan><tspan class="cls-7" x="253.89" y="0">x</tspan><tspan class="cls-5" x="271.13" y="0"> </tspan><tspan class="cls-15" x="278.57" y="0">x</tspan><tspan x="296.64" y="0">x</tspan></text><polygon class="cls-16" points="232.67 156.06 232.67 90.53 265.44 90.53 265.44 123.3 232.67 156.06"/><path class="cls-16" d="M22.47,123.29H475.64a22.47,22.47,0,0,0,22.47-22.47V75.07A22.47,22.47,0,0,0,475.64,52.6H22.47A22.47,22.47,0,0,0,0,75.07v25.75a22.47,22.47,0,0,0,22.47,22.47"/><text class="cls-17" transform="translate(27.19 99.16)">С<tspan class="cls-18" x="24.76" y="0">ə</tspan><tspan class="cls-19" x="46.94" y="0">лем,</tspan></text><text class="cls-20" transform="translate(160.53 99.16)">PECПУБЛИКA </text><text class="cls-17" transform="translate(427.59 99.16)">#</text><text class="cls-20" transform="translate(454.18 99.16)">3</text><path class="cls-21" d="M452.8,138.7a28.54,28.54,0,0,1-28.54,28.54H343a28.54,28.54,0,1,1,0-57.08h81.28A28.54,28.54,0,0,1,452.8,138.7"/><text class="cls-22" transform="translate(341.31 149.5)">send</text></g></g></svg>