<?xml version="1.0" encoding="UTF-8"?>
<svg width="400px" height="400px" viewBox="0 0 400 400" version="1.1" xmlns="http://www.w3.org/2000/svg" xmlns:xlink="http://www.w3.org/1999/xlink">
    <!-- Generator: Sketch 43.2 (39069) - http://www.bohemiancoding.com/sketch -->
    <title>process-2</title>
    <desc>Created with Sketch.</desc>
    <defs></defs>
    <g id="Page-1" stroke="none" stroke-width="1" fill="none" fill-rule="evenodd">
        <g id="process-2" fill="#FFFFFF">
            <g id="Page-1" transform="translate(90.000000, -163.000000)">
                <g id="Group-31" transform="translate(0.000000, 0.140000)">
                    <path d="M172.541,377.3469 L166.579,344.1349 L161.854,317.8039 L160.735,311.6009 C159.912,307.0039 155.9,303.7959 151.392,303.8159 L151.392,303.8069 L138.546,303.8069 L129.32,303.8069 C123.275,310.8219 114.341,315.2729 104.378,315.2729 C94.415,315.2729 85.485,310.8219 79.444,303.8069 L77.667,303.8069 L77.667,303.8159 C73.157,303.7959 69.145,307.0039 68.322,311.6009 L67.206,317.8039 L62.482,344.1349 L60.77,353.6569 L62.177,353.9119 C65.757,354.5699 68.644,357.7999 68.902,361.4269 L69.819,374.2939 C69.948,376.1269 69.389,377.8169 68.233,379.0569 C67.128,380.2429 65.588,380.8979 63.903,380.8979 C63.298,380.8979 62.682,380.8139 62.07,380.6429 L56.376,379.0719 C56.393,383.5479 59.593,387.5099 64.154,388.3319 C64.724,388.4319 65.287,388.4809 65.84,388.4809 C70.33,388.4809 74.319,385.2689 75.142,380.6879 L84.447,328.8619 L89.774,328.8619 L74.96,413.7389 C74.689,415.2789 75.747,416.5379 77.31,416.5379 L90.033,416.5379 L90.033,469.5569 C90.033,475.3239 94.717,479.9999 100.48,479.9999 C106.252,479.9999 110.93,475.3239 110.93,469.5569 L110.93,416.5379 L117.553,416.5379 L117.553,469.5569 C117.553,475.3239 122.227,479.9999 127.998,479.9999 C133.76,479.9999 138.444,475.3239 138.444,469.5569 L138.444,416.5379 L151.17,416.5379 C152.725,416.5379 153.786,415.2789 153.521,413.7389 L138.709,328.8619 L144.61,328.8619 L153.919,380.6879 C154.74,385.2689 158.722,388.4809 163.219,388.4809 C163.776,388.4809 164.338,388.4319 164.903,388.3319 C170.044,387.4059 173.461,382.4869 172.541,377.3469" id="Fill-23"></path>
                    <path d="M50.1601,355.4159 C48.6241,355.4159 47.8281,356.5829 48.3691,358.2459 L52.5401,371.1779 C52.6171,371.4039 52.7091,371.6349 52.8251,371.8659 L52.9931,372.1569 L53.2181,372.5419 L53.5251,372.9519 L53.7001,373.1809 C53.8421,373.3479 53.9901,373.5109 54.1491,373.6719 L54.2431,373.7719 C54.4291,373.9559 54.6231,374.1269 54.8271,374.2939 L54.8441,374.3069 C55.4741,374.8259 56.1671,375.2239 56.8541,375.4569 L56.8561,375.4569 L57.1111,375.5509 L63.0241,377.1779 C63.3271,377.2659 63.6281,377.3039 63.9051,377.3039 C65.3541,377.3039 66.3521,376.2029 66.2331,374.5509 L65.3191,361.6809 C65.1791,359.7089 63.4751,357.8039 61.5321,357.4469 L60.1361,357.1919 L50.7941,355.4779 C50.5691,355.4359 50.3621,355.4159 50.1601,355.4159" id="Fill-24"></path>
                    <path d="M104.3776,253.0133 C88.1776,253.0133 75.0496,266.1463 75.0496,282.3483 C75.0496,298.5443 88.1776,311.6783 104.3776,311.6783 C120.5816,311.6783 133.7136,298.5443 133.7136,282.3483 C133.7136,266.1463 120.5816,253.0133 104.3776,253.0133 M86.2116,297.8493 C83.5646,297.8493 81.4166,295.7053 81.4166,293.0563 C81.4166,290.4123 83.5646,288.2673 86.2116,288.2673 C88.8596,288.2673 90.9996,290.4123 90.9996,293.0563 C90.9996,295.7053 88.8596,297.8493 86.2116,297.8493 M105.3916,300.7023 C102.7456,300.7023 100.6036,298.5593 100.6036,295.9123 C100.6036,293.2663 102.7456,291.1243 105.3916,291.1243 C108.0406,291.1243 110.1866,293.2663 110.1866,295.9123 C110.1866,298.5593 108.0406,300.7023 105.3916,300.7023" id="Fill-25"></path>
                    <path d="M138.546,303.8064 L129.32,303.8064 C129.32,303.8064 120.49,315.2634 105.075,315.2634 C100.434,315.2634 94.428,314.4904 89.779,311.8494 L89.5,328.8764 L74.349,417.6754 C74.073,419.2824 75.155,420.6014 76.749,420.6014 L89.776,420.6014 L111.146,420.6014 L117.922,420.6014 L139.292,420.6014 L152.318,420.6014 C153.913,420.6014 154.994,419.2824 154.718,417.6754 L139.566,328.8764 L138.546,303.8064 Z" id="Fill-26"></path>
                    <path d="M72.9476,276.5928 C72.9476,276.5928 93.0186,294.9988 120.0496,284.1898 C128.3656,280.8648 120.2406,313.1118 120.2406,313.1118 L125.9066,312.0938 C130.6436,307.1398 136.4416,294.9128 137.5736,283.5938 C138.5716,273.6148 135.0946,261.4268 127.0736,255.0938 C111.2406,242.5938 79.7806,244.2178 72.9476,276.5928" id="Fill-27"></path>
                    <path d="M92.6057,420.6017 L111.1467,420.6017 L117.9217,420.6017 L139.2927,420.6017 L152.3177,420.6017 C153.9127,420.6017 154.9937,419.2827 154.7177,417.6747 L139.5657,328.8757 L92.6057,420.6017 Z" id="Fill-28"></path>
                    <path d="M127.6153,480 L127.6153,480 C133.5543,480 138.3683,475.186 138.3683,469.247 L138.3683,428.57 L116.8623,469.247 C116.8623,475.186 121.6763,480 127.6153,480" id="Fill-29"></path>
                    <path d="M100.4518,480 L100.4518,480 C106.3908,480 111.2048,475.186 111.2048,469.247 L111.2048,428.57 L89.6988,469.247 C89.6988,475.186 94.5128,480 100.4518,480" id="Fill-30"></path>
                </g>
            </g>
        </g>
    </g>
</svg>